<mxfile host="Electron" agent="Mozilla/5.0 (Windows NT 10.0; Win64; x64) AppleWebKit/537.36 (KHTML, like Gecko) draw.io/27.0.9 Chrome/134.0.6998.205 Electron/35.4.0 Safari/537.36" version="27.0.9">
  <diagram name="EBS-Snapshot-Automation" id="aws-snapshot-architecture">
    <mxGraphModel dx="1042" dy="692" grid="0" gridSize="10" guides="1" tooltips="1" connect="1" arrows="1" fold="1" page="1" pageScale="1" pageWidth="1169" pageHeight="827" math="0" shadow="0">
      <root>
        <mxCell id="0" />
        <mxCell id="1" parent="0" />
        <mxCell id="background" value="" style="rounded=0;whiteSpace=wrap;html=1;fillColor=#f8f9fa;strokeColor=none;" parent="1" vertex="1">
          <mxGeometry x="40" y="40" width="1080" height="740" as="geometry" />
        </mxCell>
        <mxCell id="title" value="AWS EBS Snapshot Automation Architecture" style="text;html=1;strokeColor=none;fillColor=none;align=center;verticalAlign=middle;whiteSpace=wrap;rounded=0;fontSize=24;fontStyle=1;fontColor=#232F3E;" parent="1" vertex="1">
          <mxGeometry x="400" y="60" width="400" height="40" as="geometry" />
        </mxCell>
        <mxCell id="aws-cloud" value="AWS Cloud" style="sketch=0;outlineConnect=0;gradientColor=none;html=1;whiteSpace=wrap;fontSize=16;fontStyle=1;shape=mxgraph.aws4.group;grIcon=mxgraph.aws4.group_aws_cloud;strokeColor=#232F3E;fillColor=#ffffff;verticalAlign=top;align=left;spacingLeft=30;fontColor=#232F3E;dashed=0;" parent="1" vertex="1">
          <mxGeometry x="80" y="120" width="1066" height="621" as="geometry" />
        </mxCell>
        <mxCell id="ec2-instance" value="EC2 Instance" style="sketch=0;points=[[0,0,0],[0.25,0,0],[0.5,0,0],[0.75,0,0],[1,0,0],[0,1,0],[0.25,1,0],[0.5,1,0],[0.75,1,0],[1,1,0],[0,0.25,0],[0,0.5,0],[0,0.75,0],[1,0.25,0],[1,0.5,0],[1,0.75,0]];outlineConnect=0;fontColor=#232F3E;gradientColor=#F78E04;gradientDirection=north;fillColor=#D05C17;strokeColor=#ffffff;dashed=0;verticalLabelPosition=bottom;verticalAlign=top;align=center;html=1;fontSize=12;fontStyle=0;aspect=fixed;shape=mxgraph.aws4.resourceIcon;resIcon=mxgraph.aws4.ec2;" parent="1" vertex="1">
          <mxGeometry x="140" y="180" width="78" height="78" as="geometry" />
        </mxCell>
        <mxCell id="ebs-volume" value="EBS Volume" style="sketch=0;points=[[0,0,0],[0.25,0,0],[0.5,0,0],[0.75,0,0],[1,0,0],[0,1,0],[0.25,1,0],[0.5,1,0],[0.75,1,0],[1,1,0],[0,0.25,0],[0,0.5,0],[0,0.75,0],[1,0.25,0],[1,0.5,0],[1,0.75,0]];outlineConnect=0;fontColor=#232F3E;gradientColor=#F78E04;gradientDirection=north;fillColor=#D05C17;strokeColor=#ffffff;dashed=0;verticalLabelPosition=bottom;verticalAlign=top;align=center;html=1;fontSize=12;fontStyle=0;aspect=fixed;shape=mxgraph.aws4.resourceIcon;resIcon=mxgraph.aws4.ebs;" parent="1" vertex="1">
          <mxGeometry x="140" y="320" width="78" height="78" as="geometry" />
        </mxCell>
        <mxCell id="ebs-snapshot" value="EBS Snapshot&#xa;(Auto-created)" style="sketch=0;points=[[0,0,0],[0.25,0,0],[0.5,0,0],[0.75,0,0],[1,0,0],[0,1,0],[0.25,1,0],[0.5,1,0],[0.75,1,0],[1,1,0],[0,0.25,0],[0,0.5,0],[0,0.75,0],[1,0.25,0],[1,0.5,0],[1,0.75,0]];outlineConnect=0;fontColor=#232F3E;gradientColor=#F78E04;gradientDirection=north;fillColor=#D05C17;strokeColor=#ffffff;dashed=0;verticalLabelPosition=bottom;verticalAlign=top;align=center;html=1;fontSize=12;fontStyle=0;aspect=fixed;shape=mxgraph.aws4.resourceIcon;resIcon=mxgraph.aws4.snapshot;" parent="1" vertex="1">
          <mxGeometry x="331" y="196" width="78" height="78" as="geometry" />
        </mxCell>
        <mxCell id="cloudtrail" value="AWS CloudTrail" style="sketch=0;points=[[0,0,0],[0.25,0,0],[0.5,0,0],[0.75,0,0],[1,0,0],[0,1,0],[0.25,1,0],[0.5,1,0],[0.75,1,0],[1,1,0],[0,0.25,0],[0,0.5,0],[0,0.75,0],[1,0.25,0],[1,0.5,0],[1,0.75,0]];outlineConnect=0;fontColor=#232F3E;gradientColor=#4AB29A;gradientDirection=north;fillColor=#116D5B;strokeColor=#ffffff;dashed=0;verticalLabelPosition=bottom;verticalAlign=top;align=center;html=1;fontSize=12;fontStyle=0;aspect=fixed;shape=mxgraph.aws4.resourceIcon;resIcon=mxgraph.aws4.cloudtrail;" parent="1" vertex="1">
          <mxGeometry x="565" y="165" width="78" height="78" as="geometry" />
        </mxCell>
        <mxCell id="eventbridge" value="Amazon EventBridge&#xa;(CloudWatch Events)" style="sketch=0;points=[[0,0,0],[0.25,0,0],[0.5,0,0],[0.75,0,0],[1,0,0],[0,1,0],[0.25,1,0],[0.5,1,0],[0.75,1,0],[1,1,0],[0,0.25,0],[0,0.5,0],[0,0.75,0],[1,0.25,0],[1,0.5,0],[1,0.75,0]];outlineConnect=0;fontColor=#232F3E;gradientColor=#F34482;gradientDirection=north;fillColor=#BC1356;strokeColor=#ffffff;dashed=0;verticalLabelPosition=bottom;verticalAlign=top;align=center;html=1;fontSize=12;fontStyle=0;aspect=fixed;shape=mxgraph.aws4.resourceIcon;resIcon=mxgraph.aws4.eventbridge;" parent="1" vertex="1">
          <mxGeometry x="919" y="306" width="78" height="78" as="geometry" />
        </mxCell>
        <mxCell id="lambda-tag" value="TagSnapshot&#xa;Lambda Function" style="sketch=0;points=[[0,0,0],[0.25,0,0],[0.5,0,0],[0.75,0,0],[1,0,0],[0,1,0],[0.25,1,0],[0.5,1,0],[0.75,1,0],[1,1,0],[0,0.25,0],[0,0.5,0],[0,0.75,0],[1,0.25,0],[1,0.5,0],[1,0.75,0]];outlineConnect=0;fontColor=#232F3E;gradientColor=#F78E04;gradientDirection=north;fillColor=#D05C17;strokeColor=#ffffff;dashed=0;verticalLabelPosition=bottom;verticalAlign=top;align=center;html=1;fontSize=12;fontStyle=0;aspect=fixed;shape=mxgraph.aws4.resourceIcon;resIcon=mxgraph.aws4.lambda;" parent="1" vertex="1">
          <mxGeometry x="770" y="480" width="78" height="78" as="geometry" />
        </mxCell>
        <mxCell id="lambda-list" value="ListStaleSnapshots&#xa;Lambda Function" style="sketch=0;points=[[0,0,0],[0.25,0,0],[0.5,0,0],[0.75,0,0],[1,0,0],[0,1,0],[0.25,1,0],[0.5,1,0],[0.75,1,0],[1,1,0],[0,0.25,0],[0,0.5,0],[0,0.75,0],[1,0.25,0],[1,0.5,0],[1,0.75,0]];outlineConnect=0;fontColor=#232F3E;gradientColor=#F78E04;gradientDirection=north;fillColor=#D05C17;strokeColor=#ffffff;dashed=0;verticalLabelPosition=bottom;verticalAlign=top;align=center;html=1;fontSize=12;fontStyle=0;aspect=fixed;shape=mxgraph.aws4.resourceIcon;resIcon=mxgraph.aws4.lambda;" parent="1" vertex="1">
          <mxGeometry x="560" y="480" width="78" height="78" as="geometry" />
        </mxCell>
        <mxCell id="iam-role" value="IAM Execution Role&#xa;(SnapshotLambdaExecutionRole)" style="sketch=0;points=[[0,0,0],[0.25,0,0],[0.5,0,0],[0.75,0,0],[1,0,0],[0,1,0],[0.25,1,0],[0.5,1,0],[0.75,1,0],[1,1,0],[0,0.25,0],[0,0.5,0],[0,0.75,0],[1,0.25,0],[1,0.5,0],[1,0.75,0]];outlineConnect=0;fontColor=#232F3E;gradientColor=#F54749;gradientDirection=north;fillColor=#C7131F;strokeColor=#ffffff;dashed=0;verticalLabelPosition=bottom;verticalAlign=top;align=center;html=1;fontSize=12;fontStyle=0;aspect=fixed;shape=mxgraph.aws4.resourceIcon;resIcon=mxgraph.aws4.iam;" parent="1" vertex="1">
          <mxGeometry x="1012" y="477" width="78" height="78" as="geometry" />
        </mxCell>
        <mxCell id="cloudwatch-logs" value="CloudWatch Logs" style="sketch=0;points=[[0,0,0],[0.25,0,0],[0.5,0,0],[0.75,0,0],[1,0,0],[0,1,0],[0.25,1,0],[0.5,1,0],[0.75,1,0],[1,1,0],[0,0.25,0],[0,0.5,0],[0,0.75,0],[1,0.25,0],[1,0.5,0],[1,0.75,0]];outlineConnect=0;fontColor=#232F3E;gradientColor=#F34482;gradientDirection=north;fillColor=#BC1356;strokeColor=#ffffff;dashed=0;verticalLabelPosition=bottom;verticalAlign=top;align=center;html=1;fontSize=12;fontStyle=0;aspect=fixed;shape=mxgraph.aws4.resourceIcon;resIcon=mxgraph.aws4.cloudwatch;" parent="1" vertex="1">
          <mxGeometry x="770" y="638" width="78" height="78" as="geometry" />
        </mxCell>
        <mxCell id="manual-trigger" value="Manual/Scheduled&#xa;Trigger" style="sketch=0;outlineConnect=0;fontColor=#232F3E;gradientColor=none;fillColor=#4D27AA;strokeColor=none;dashed=0;verticalLabelPosition=bottom;verticalAlign=top;align=center;html=1;fontSize=12;fontStyle=0;aspect=fixed;pointerEvents=1;shape=mxgraph.aws4.user;" parent="1" vertex="1">
          <mxGeometry x="361" y="606" width="78" height="78" as="geometry" />
        </mxCell>
        <mxCell id="arrow1" value="" style="edgeStyle=orthogonalEdgeStyle;rounded=0;orthogonalLoop=1;jettySize=auto;html=1;strokeColor=#FF6B35;strokeWidth=3;endArrow=classic;endFill=1;flowAnimation=1;" parent="1" source="ec2-instance" target="ebs-volume" edge="1">
          <mxGeometry relative="1" as="geometry" />
        </mxCell>
        <mxCell id="arrow1-label" value="Attached" style="edgeLabel;html=1;align=center;verticalAlign=middle;resizable=0;points=[];fontColor=#FF6B35;fontStyle=1;" parent="arrow1" vertex="1" connectable="0">
          <mxGeometry x="-0.1" y="1" relative="1" as="geometry">
            <mxPoint as="offset" />
          </mxGeometry>
        </mxCell>
        <mxCell id="arrow2" value="" style="edgeStyle=orthogonalEdgeStyle;rounded=0;orthogonalLoop=1;jettySize=auto;html=1;strokeColor=#4ECDC4;strokeWidth=3;endArrow=classic;endFill=1;flowAnimation=1;" parent="1" source="ebs-volume" target="ebs-snapshot" edge="1">
          <mxGeometry relative="1" as="geometry" />
        </mxCell>
        <mxCell id="arrow2-label" value="Creates Snapshot" style="edgeLabel;html=1;align=center;verticalAlign=middle;resizable=0;points=[];fontColor=#4ECDC4;fontStyle=1;" parent="arrow2" vertex="1" connectable="0">
          <mxGeometry x="-0.1" y="1" relative="1" as="geometry">
            <mxPoint as="offset" />
          </mxGeometry>
        </mxCell>
        <mxCell id="arrow3" value="" style="edgeStyle=orthogonalEdgeStyle;rounded=0;orthogonalLoop=1;jettySize=auto;html=1;strokeColor=#45B7D1;strokeWidth=3;endArrow=classic;endFill=1;flowAnimation=1;" parent="1" source="ebs-snapshot" target="cloudtrail" edge="1">
          <mxGeometry relative="1" as="geometry" />
        </mxCell>
        <mxCell id="arrow3-label" value="API Call Logged" style="edgeLabel;html=1;align=center;verticalAlign=middle;resizable=0;points=[];fontColor=#45B7D1;fontStyle=1;" parent="arrow3" vertex="1" connectable="0">
          <mxGeometry x="-0.1" y="1" relative="1" as="geometry">
            <mxPoint as="offset" />
          </mxGeometry>
        </mxCell>
        <mxCell id="arrow4" value="" style="edgeStyle=orthogonalEdgeStyle;rounded=0;orthogonalLoop=1;jettySize=auto;html=1;strokeColor=#96CEB4;strokeWidth=3;endArrow=classic;endFill=1;flowAnimation=1;" parent="1" source="cloudtrail" target="eventbridge" edge="1">
          <mxGeometry relative="1" as="geometry" />
        </mxCell>
        <mxCell id="arrow4-label" value="Event Pattern Match" style="edgeLabel;html=1;align=center;verticalAlign=middle;resizable=0;points=[];fontColor=#96CEB4;fontStyle=1;" parent="arrow4" vertex="1" connectable="0">
          <mxGeometry x="-0.1" y="1" relative="1" as="geometry">
            <mxPoint as="offset" />
          </mxGeometry>
        </mxCell>
        <mxCell id="arrow5" value="" style="edgeStyle=orthogonalEdgeStyle;rounded=0;orthogonalLoop=1;jettySize=auto;html=1;strokeColor=#FECA57;strokeWidth=3;endArrow=classic;endFill=1;flowAnimation=1;" parent="1" source="eventbridge" target="lambda-tag" edge="1">
          <mxGeometry relative="1" as="geometry" />
        </mxCell>
        <mxCell id="arrow5-label" value="Triggers Lambda" style="edgeLabel;html=1;align=center;verticalAlign=middle;resizable=0;points=[];fontColor=#FECA57;fontStyle=1;" parent="arrow5" vertex="1" connectable="0">
          <mxGeometry x="-0.1" y="1" relative="1" as="geometry">
            <mxPoint x="11" y="21" as="offset" />
          </mxGeometry>
        </mxCell>
        <mxCell id="arrow6" value="" style="edgeStyle=orthogonalEdgeStyle;rounded=0;orthogonalLoop=1;jettySize=auto;html=1;strokeColor=#FF9FF3;strokeWidth=3;endArrow=classic;endFill=1;exitX=0;exitY=0.5;exitDx=0;exitDy=0;exitPerimeter=0;flowAnimation=1;" parent="1" source="lambda-tag" target="ebs-snapshot" edge="1">
          <mxGeometry relative="1" as="geometry">
            <Array as="points">
              <mxPoint x="700" y="519" />
              <mxPoint x="700" y="352" />
              <mxPoint x="494" y="352" />
              <mxPoint x="494" y="249" />
            </Array>
          </mxGeometry>
        </mxCell>
        <mxCell id="arrow6-label" value="Tags with&#xa;DeleteOn &amp; Retention" style="edgeLabel;html=1;align=center;verticalAlign=middle;resizable=0;points=[];fontColor=#FF9FF3;fontStyle=1;" parent="arrow6" vertex="1" connectable="0">
          <mxGeometry x="-0.1" y="1" relative="1" as="geometry">
            <mxPoint x="20" y="-10" as="offset" />
          </mxGeometry>
        </mxCell>
        <mxCell id="arrow7" value="" style="edgeStyle=orthogonalEdgeStyle;rounded=0;orthogonalLoop=1;jettySize=auto;html=1;strokeColor=#54A0FF;strokeWidth=3;endArrow=classic;endFill=1;flowAnimation=1;" parent="1" source="manual-trigger" target="lambda-list" edge="1">
          <mxGeometry relative="1" as="geometry">
            <Array as="points">
              <mxPoint x="454" y="645" />
              <mxPoint x="454" y="536" />
            </Array>
          </mxGeometry>
        </mxCell>
        <mxCell id="arrow7-label" value="Manual Invoke" style="edgeLabel;html=1;align=center;verticalAlign=middle;resizable=0;points=[];fontColor=#54A0FF;fontStyle=1;" parent="arrow7" vertex="1" connectable="0">
          <mxGeometry x="-0.1" y="1" relative="1" as="geometry">
            <mxPoint as="offset" />
          </mxGeometry>
        </mxCell>
        <mxCell id="arrow8" value="" style="edgeStyle=orthogonalEdgeStyle;rounded=0;orthogonalLoop=1;jettySize=auto;html=1;strokeColor=#5F27CD;strokeWidth=3;endArrow=classic;endFill=1;exitX=0;exitY=0.5;exitDx=0;exitDy=0;exitPerimeter=0;flowAnimation=1;" parent="1" source="lambda-list" target="ebs-snapshot" edge="1">
          <mxGeometry relative="1" as="geometry">
            <Array as="points">
              <mxPoint x="500" y="519" />
              <mxPoint x="500" y="420" />
              <mxPoint x="449" y="420" />
              <mxPoint x="449" y="271" />
            </Array>
            <mxPoint x="413" y="271" as="targetPoint" />
          </mxGeometry>
        </mxCell>
        <mxCell id="arrow8-label" value="Queries Snapshots&#xa;&amp; Metadata" style="edgeLabel;html=1;align=center;verticalAlign=middle;resizable=0;points=[];fontColor=#5F27CD;fontStyle=1;" parent="arrow8" vertex="1" connectable="0">
          <mxGeometry x="-0.1" y="1" relative="1" as="geometry">
            <mxPoint x="20" y="-10" as="offset" />
          </mxGeometry>
        </mxCell>
        <mxCell id="arrow9" value="" style="edgeStyle=orthogonalEdgeStyle;rounded=0;orthogonalLoop=1;jettySize=auto;html=1;strokeColor=#FF6B6B;strokeWidth=2;endArrow=classic;endFill=1;dashed=1;flowAnimation=1;" parent="1" source="iam-role" target="lambda-tag" edge="1">
          <mxGeometry relative="1" as="geometry" />
        </mxCell>
        <mxCell id="arrow9-label" value="Permissions" style="edgeLabel;html=1;align=center;verticalAlign=middle;resizable=0;points=[];fontColor=#FF6B6B;fontStyle=1;" parent="arrow9" vertex="1" connectable="0">
          <mxGeometry x="-0.1" y="1" relative="1" as="geometry">
            <mxPoint as="offset" />
          </mxGeometry>
        </mxCell>
        <mxCell id="arrow10" value="" style="edgeStyle=orthogonalEdgeStyle;rounded=0;orthogonalLoop=1;jettySize=auto;html=1;strokeColor=#FF6B6B;strokeWidth=2;endArrow=classic;endFill=1;dashed=1;flowAnimation=1;" parent="1" source="iam-role" target="lambda-list" edge="1">
          <mxGeometry relative="1" as="geometry">
            <Array as="points">
              <mxPoint x="963" y="516" />
              <mxPoint x="963" y="440" />
              <mxPoint x="599" y="440" />
            </Array>
          </mxGeometry>
        </mxCell>
        <mxCell id="arrow11" value="" style="edgeStyle=orthogonalEdgeStyle;rounded=0;orthogonalLoop=1;jettySize=auto;html=1;strokeColor=#00D2D3;strokeWidth=2;endArrow=classic;endFill=1;flowAnimation=1;" parent="1" source="lambda-tag" target="cloudwatch-logs" edge="1">
          <mxGeometry relative="1" as="geometry" />
        </mxCell>
        <mxCell id="arrow11-label" value="Logs" style="edgeLabel;html=1;align=center;verticalAlign=middle;resizable=0;points=[];fontColor=#00D2D3;fontStyle=1;" parent="arrow11" vertex="1" connectable="0">
          <mxGeometry x="-0.1" y="1" relative="1" as="geometry">
            <mxPoint x="-1" y="10" as="offset" />
          </mxGeometry>
        </mxCell>
        <mxCell id="arrow12" value="" style="edgeStyle=orthogonalEdgeStyle;rounded=0;orthogonalLoop=1;jettySize=auto;html=1;strokeColor=#00D2D3;strokeWidth=2;endArrow=classic;endFill=1;flowAnimation=1;" parent="1" source="lambda-list" target="cloudwatch-logs" edge="1">
          <mxGeometry relative="1" as="geometry">
            <Array as="points">
              <mxPoint x="599" y="659" />
            </Array>
          </mxGeometry>
        </mxCell>
        <mxCell id="legend-bg" value="" style="rounded=1;whiteSpace=wrap;html=1;fillColor=#f8f9fa;strokeColor=#dee2e6;strokeWidth=2;" parent="1" vertex="1">
          <mxGeometry x="100" y="450" width="200" height="180" as="geometry" />
        </mxCell>
        <mxCell id="legend-title" value="Legend" style="text;html=1;strokeColor=none;fillColor=none;align=center;verticalAlign=middle;whiteSpace=wrap;rounded=0;fontSize=14;fontStyle=1;fontColor=#232F3E;" parent="1" vertex="1">
          <mxGeometry x="150" y="460" width="100" height="20" as="geometry" />
        </mxCell>
        <mxCell id="legend-auto" value="🔄 Automated Flow" style="text;html=1;strokeColor=none;fillColor=none;align=left;verticalAlign=middle;whiteSpace=wrap;rounded=0;fontSize=11;fontColor=#232F3E;" parent="1" vertex="1">
          <mxGeometry x="110" y="485" width="180" height="15" as="geometry" />
        </mxCell>
        <mxCell id="legend-manual" value="👤 Manual Trigger" style="text;html=1;strokeColor=none;fillColor=none;align=left;verticalAlign=middle;whiteSpace=wrap;rounded=0;fontSize=11;fontColor=#232F3E;" parent="1" vertex="1">
          <mxGeometry x="110" y="505" width="180" height="15" as="geometry" />
        </mxCell>
        <mxCell id="legend-permission" value="🔐 IAM Permissions" style="text;html=1;strokeColor=none;fillColor=none;align=left;verticalAlign=middle;whiteSpace=wrap;rounded=0;fontSize=11;fontColor=#232F3E;" parent="1" vertex="1">
          <mxGeometry x="110" y="525" width="180" height="15" as="geometry" />
        </mxCell>
        <mxCell id="legend-logs" value="📝 Logging" style="text;html=1;strokeColor=none;fillColor=none;align=left;verticalAlign=middle;whiteSpace=wrap;rounded=0;fontSize=11;fontColor=#232F3E;" parent="1" vertex="1">
          <mxGeometry x="110" y="545" width="180" height="15" as="geometry" />
        </mxCell>
        <mxCell id="legend-functions" value="⚡ Lambda Functions:" style="text;html=1;strokeColor=none;fillColor=none;align=left;verticalAlign=middle;whiteSpace=wrap;rounded=0;fontSize=11;fontStyle=1;fontColor=#232F3E;" parent="1" vertex="1">
          <mxGeometry x="110" y="570" width="180" height="15" as="geometry" />
        </mxCell>
        <mxCell id="legend-tag" value="• TagSnapshot (Auto-tag)" style="text;html=1;strokeColor=none;fillColor=none;align=left;verticalAlign=middle;whiteSpace=wrap;rounded=0;fontSize=10;fontColor=#232F3E;" parent="1" vertex="1">
          <mxGeometry x="115" y="585" width="175" height="15" as="geometry" />
        </mxCell>
        <mxCell id="legend-list" value="• ListStaleSnapshots (Report)" style="text;html=1;strokeColor=none;fillColor=none;align=left;verticalAlign=middle;whiteSpace=wrap;rounded=0;fontSize=10;fontColor=#232F3E;" parent="1" vertex="1">
          <mxGeometry x="115" y="600" width="175" height="15" as="geometry" />
        </mxCell>
      </root>
    </mxGraphModel>
  </diagram>
</mxfile>
